<svg width="265" height="47" viewBox="0 0 265 47" fill="none" xmlns="http://www.w3.org/2000/svg">
<path d="M37.5184 43.0814C37.3321 43.2747 37.1354 43.4507 36.9284 43.6094C36.7283 43.7612 36.5109 43.8923 36.2762 44.0027C36.0416 44.1132 35.7897 44.1994 35.5206 44.2615C35.2514 44.3236 34.9512 44.3547 34.62 44.3547C34.0955 44.3547 33.6124 44.2581 33.1708 44.0648C32.7291 43.8716 32.3461 43.6094 32.0217 43.2781C31.6974 42.94 31.4421 42.5432 31.2557 42.0877C31.0763 41.6322 30.9866 41.1423 30.9866 40.6178C30.9866 40.1002 31.0763 39.6137 31.2557 39.1582C31.4421 38.7027 31.6974 38.3059 32.0217 37.9678C32.3461 37.6227 32.7326 37.3536 33.1811 37.1604C33.6297 36.9602 34.1197 36.8602 34.651 36.8602C34.9823 36.8602 35.279 36.8878 35.5413 36.943C35.8104 36.9982 36.0589 37.0775 36.2866 37.1811C36.5143 37.2777 36.7248 37.3984 36.918 37.5434C37.1113 37.6814 37.2976 37.8367 37.477 38.0092L36.918 38.6096C36.6075 38.3197 36.2728 38.0816 35.9139 37.8953C35.562 37.709 35.1376 37.6158 34.6407 37.6158C34.2404 37.6158 33.8678 37.6917 33.5227 37.8436C33.1846 37.9954 32.8878 38.2059 32.6325 38.475C32.3841 38.7441 32.1874 39.0616 32.0424 39.4273C31.9044 39.7862 31.8354 40.1761 31.8354 40.5971C31.8354 41.018 31.9044 41.4114 32.0424 41.7771C32.1874 42.1429 32.3841 42.4604 32.6325 42.7295C32.8878 42.9986 33.1846 43.2126 33.5227 43.3713C33.8678 43.5231 34.2404 43.599 34.6407 43.599C35.1376 43.599 35.5654 43.5093 35.9243 43.3299C36.2831 43.1436 36.6351 42.8848 36.9801 42.5535L37.5184 43.0814ZM42.6143 41.9428V38.8787H43.401V44.2305H42.6143V43.2988C42.4349 43.5887 42.2002 43.8371 41.9104 44.0441C41.6206 44.2443 41.2445 44.3443 40.7821 44.3443C40.4577 44.3443 40.1679 44.2926 39.9125 44.1891C39.6641 44.0855 39.4502 43.9406 39.2708 43.7543C39.0982 43.5611 38.9637 43.3333 38.867 43.0711C38.7773 42.8089 38.7325 42.519 38.7325 42.2016V38.8787H39.5295V42.0049C39.5295 42.5018 39.6572 42.8951 39.9125 43.185C40.1679 43.4748 40.5336 43.6197 41.0098 43.6197C41.2375 43.6197 41.448 43.5818 41.6413 43.5059C41.8414 43.423 42.0105 43.3092 42.1485 43.1643C42.2934 43.0124 42.4073 42.833 42.4901 42.626C42.5729 42.4189 42.6143 42.1912 42.6143 41.9428ZM45.9911 42.098V44.2305H45.194V38.8787H45.9911V40.2762C46.0877 40.0553 46.2085 39.8518 46.3534 39.6654C46.4983 39.4791 46.664 39.3204 46.8503 39.1893C47.0366 39.0512 47.2402 38.9477 47.461 38.8787C47.6819 38.8097 47.9199 38.7786 48.1753 38.7855V39.6447H48.1132C47.8233 39.6447 47.5473 39.6965 47.285 39.8C47.0297 39.9035 46.8054 40.0588 46.6122 40.2658C46.419 40.4729 46.2671 40.7316 46.1567 41.0422C46.0463 41.3458 45.9911 41.6978 45.9911 42.098ZM51.0622 39.5102C50.7447 39.5102 50.4549 39.5481 50.1926 39.624C49.9373 39.693 49.6854 39.7862 49.437 39.9035L49.1989 39.2514C49.4956 39.1133 49.7958 39.0064 50.0995 38.9305C50.4031 38.8477 50.7516 38.8062 51.145 38.8062C51.8765 38.8062 52.4389 38.9891 52.8323 39.3549C53.2256 39.7137 53.4223 40.2486 53.4223 40.9594V44.2305H52.6563V43.423C52.47 43.6646 52.2181 43.8785 51.9006 44.0648C51.5901 44.2512 51.1967 44.3443 50.7206 44.3443C50.4721 44.3443 50.2271 44.3098 49.9856 44.2408C49.751 44.1718 49.537 44.0683 49.3438 43.9303C49.1575 43.7854 49.0056 43.6094 48.8883 43.4023C48.7779 43.1953 48.7227 42.9503 48.7227 42.6674C48.7227 42.3844 48.7779 42.136 48.8883 41.9221C48.9987 41.7012 49.154 41.5184 49.3541 41.3734C49.5612 41.2285 49.8027 41.1181 50.0788 41.0422C50.3617 40.9663 50.6722 40.9283 51.0104 40.9283C51.3554 40.9283 51.6556 40.949 51.911 40.9904C52.1663 41.0318 52.4148 41.087 52.6563 41.1561V40.9697C52.6563 40.4867 52.5148 40.1243 52.2319 39.8828C51.9558 39.6344 51.5659 39.5102 51.0622 39.5102ZM51.0932 41.5184C50.5894 41.5184 50.203 41.6184 49.9338 41.8186C49.6647 42.0187 49.5301 42.2913 49.5301 42.6363C49.5301 42.8089 49.5646 42.9607 49.6336 43.0918C49.7095 43.2229 49.8096 43.3368 49.9338 43.4334C50.0581 43.5231 50.1995 43.5921 50.3582 43.6404C50.5239 43.6887 50.6964 43.7129 50.8758 43.7129C51.1243 43.7129 51.3554 43.6784 51.5694 43.6094C51.7902 43.5335 51.98 43.4334 52.1387 43.3092C52.3043 43.1781 52.432 43.0262 52.5217 42.8537C52.6183 42.6743 52.6666 42.4776 52.6666 42.2637V41.7461C52.4665 41.6909 52.2353 41.6391 51.9731 41.5908C51.7178 41.5425 51.4245 41.5184 51.0932 41.5184ZM56.147 39.5826V42.7088C56.147 43.04 56.2298 43.2712 56.3955 43.4023C56.5611 43.5335 56.7785 43.599 57.0476 43.599C57.1856 43.599 57.3133 43.5852 57.4306 43.5576C57.5548 43.53 57.686 43.4817 57.824 43.4127V44.0959C57.686 44.1718 57.5376 44.227 57.3789 44.2615C57.227 44.3029 57.0545 44.3236 56.8613 44.3236C56.6474 44.3236 56.4472 44.296 56.2609 44.2408C56.0746 44.1856 55.9124 44.0993 55.7744 43.982C55.6433 43.8578 55.5397 43.6991 55.4638 43.5059C55.3879 43.3126 55.35 43.0814 55.35 42.8123V39.5826H54.6047V38.8787H55.35V37.2639H56.147V38.8787H57.8447V39.5826H56.147ZM59.5801 41.8496C59.6077 42.1395 59.6767 42.3982 59.7871 42.626C59.8976 42.8468 60.039 43.0366 60.2116 43.1953C60.3841 43.3471 60.5773 43.4645 60.7912 43.5473C61.0052 43.6232 61.2295 43.6611 61.4641 43.6611C61.8368 43.6611 62.1542 43.5921 62.4164 43.4541C62.6856 43.3161 62.9306 43.1332 63.1514 42.9055L63.6483 43.3506C63.3791 43.6542 63.072 43.8992 62.727 44.0855C62.3819 44.265 61.9541 44.3547 61.4434 44.3547C61.0776 44.3547 60.7326 44.2891 60.4082 44.158C60.0839 44.02 59.8009 43.8302 59.5594 43.5887C59.3179 43.3402 59.1246 43.0435 58.9797 42.6984C58.8417 42.3534 58.7727 41.9738 58.7727 41.5598C58.7727 41.1733 58.8348 40.811 58.959 40.4729C59.0901 40.1278 59.2696 39.8311 59.4973 39.5826C59.725 39.3273 59.9942 39.1271 60.3047 38.9822C60.6222 38.8373 60.9672 38.7648 61.3399 38.7648C61.7332 38.7648 62.0852 38.8408 62.3957 38.9926C62.7063 39.1375 62.9685 39.3376 63.1825 39.593C63.3964 39.8483 63.5586 40.1485 63.669 40.4936C63.7794 40.8386 63.8346 41.2078 63.8346 41.6012C63.8346 41.6357 63.8346 41.6736 63.8346 41.715C63.8346 41.7564 63.8312 41.8013 63.8243 41.8496H59.5801ZM59.5801 41.2596H63.0272C63.0065 41.018 62.9547 40.7868 62.8719 40.566C62.796 40.3452 62.6856 40.152 62.5407 39.9863C62.4026 39.8207 62.2301 39.6896 62.0231 39.593C61.823 39.4895 61.5883 39.4377 61.3192 39.4377C61.0845 39.4377 60.8672 39.486 60.667 39.5826C60.4669 39.6723 60.2909 39.8 60.1391 39.9656C59.9873 40.1243 59.8631 40.3141 59.7664 40.535C59.6698 40.7558 59.6077 40.9973 59.5801 41.2596ZM70.3229 44.2305H69.5259V43.1539C69.4154 43.3126 69.2912 43.4645 69.1532 43.6094C69.0221 43.7543 68.8737 43.882 68.7081 43.9924C68.5425 44.1028 68.3561 44.1891 68.1491 44.2512C67.949 44.3133 67.7247 44.3443 67.4763 44.3443C67.1519 44.3443 66.8379 44.2822 66.5343 44.158C66.2306 44.0338 65.958 43.8544 65.7165 43.6197C65.475 43.3782 65.2817 43.0849 65.1368 42.7398C64.9919 42.3948 64.9194 42.0014 64.9194 41.5598C64.9194 41.1181 64.9919 40.7247 65.1368 40.3797C65.2817 40.0346 65.475 39.7448 65.7165 39.5102C65.958 39.2686 66.2306 39.0857 66.5343 38.9615C66.8379 38.8304 67.1519 38.7648 67.4763 38.7648C67.7247 38.7648 67.9524 38.7959 68.1595 38.858C68.3665 38.9201 68.5528 39.0029 68.7184 39.1064C68.8841 39.21 69.0324 39.3307 69.1636 39.4687C69.3016 39.6068 69.4223 39.7517 69.5259 39.9035V36.6738H70.3229V44.2305ZM69.5569 41.5494C69.5569 41.2389 69.5017 40.9559 69.3913 40.7006C69.2878 40.4452 69.1429 40.2279 68.9565 40.0484C68.7771 39.869 68.5701 39.731 68.3354 39.6344C68.1077 39.5309 67.8696 39.4791 67.6212 39.4791C67.3589 39.4791 67.1139 39.5274 66.8862 39.624C66.6585 39.7137 66.4583 39.8483 66.2858 40.0277C66.1202 40.2003 65.9856 40.4176 65.8821 40.6799C65.7855 40.9352 65.7372 41.2251 65.7372 41.5494C65.7372 41.8669 65.7855 42.1533 65.8821 42.4086C65.9856 42.6639 66.1236 42.8848 66.2962 43.0711C66.4687 43.2505 66.6688 43.3885 66.8966 43.4852C67.1243 43.5818 67.3658 43.6301 67.6212 43.6301C67.8696 43.6301 68.1077 43.5818 68.3354 43.4852C68.5701 43.3816 68.7771 43.2402 68.9565 43.0607C69.1429 42.8813 69.2878 42.6639 69.3913 42.4086C69.5017 42.1464 69.5569 41.86 69.5569 41.5494ZM78.7891 36.9326L82.0913 44.2305H81.2114L80.3626 42.3154H76.4186L75.5594 44.2305H74.721L78.0231 36.9326H78.7891ZM80.0417 41.5805L78.3958 37.885L76.7395 41.5805H80.0417ZM84.1827 42.098V44.2305H83.3856V38.8787H84.1827V40.2762C84.2793 40.0553 84.4001 39.8518 84.545 39.6654C84.6899 39.4791 84.8556 39.3204 85.0419 39.1893C85.2282 39.0512 85.4318 38.9477 85.6526 38.8787C85.8735 38.8097 86.1115 38.7786 86.3669 38.7855V39.6447H86.3048C86.0149 39.6447 85.7389 39.6965 85.4766 39.8C85.2213 39.9035 84.997 40.0588 84.8038 40.2658C84.6106 40.4729 84.4587 40.7316 84.3483 41.0422C84.2379 41.3458 84.1827 41.6978 84.1827 42.098ZM88.6574 39.5826V42.7088C88.6574 43.04 88.7402 43.2712 88.9058 43.4023C89.0715 43.5335 89.2889 43.599 89.558 43.599C89.696 43.599 89.8237 43.5852 89.941 43.5576C90.0652 43.53 90.1963 43.4817 90.3344 43.4127V44.0959C90.1963 44.1718 90.048 44.227 89.8892 44.2615C89.7374 44.3029 89.5649 44.3236 89.3717 44.3236C89.1577 44.3236 88.9576 44.296 88.7713 44.2408C88.5849 44.1856 88.4228 44.0993 88.2848 43.982C88.1536 43.8578 88.0501 43.6991 87.9742 43.5059C87.8983 43.3126 87.8603 43.0814 87.8603 42.8123V39.5826H87.115V38.8787H87.8603V37.2639H88.6574V38.8787H90.3551V39.5826H88.6574ZM92.6976 37.709H91.7867V36.8291H92.6976V37.709ZM92.6355 44.2305H91.8384V38.8787H92.6355V44.2305ZM98.1601 42.7295C98.1601 42.9848 98.1083 43.2126 98.0048 43.4127C97.9082 43.6059 97.7736 43.7715 97.6011 43.9096C97.4355 44.0476 97.2353 44.1546 97.0007 44.2305C96.773 44.2995 96.5245 44.334 96.2554 44.334C95.8689 44.334 95.479 44.265 95.0856 44.127C94.6923 43.982 94.3438 43.7888 94.0401 43.5473L94.4439 42.9779C94.7337 43.1988 95.0339 43.3678 95.3444 43.4852C95.6619 43.6025 95.9793 43.6611 96.2968 43.6611C96.6211 43.6611 96.8868 43.5852 97.0939 43.4334C97.3009 43.2816 97.4044 43.0745 97.4044 42.8123V42.7916C97.4044 42.6605 97.3664 42.5466 97.2905 42.45C97.2215 42.3534 97.1249 42.2706 97.0007 42.2016C96.8765 42.1257 96.7315 42.0601 96.5659 42.0049C96.4072 41.9497 96.2416 41.8979 96.069 41.8496C95.862 41.7875 95.6515 41.7219 95.4376 41.6529C95.2306 41.577 95.0408 41.4839 94.8683 41.3734C94.7026 41.263 94.5646 41.125 94.4542 40.9594C94.3507 40.7937 94.2989 40.5867 94.2989 40.3383V40.3176C94.2989 40.0898 94.3438 39.8828 94.4335 39.6965C94.5232 39.5033 94.6474 39.3411 94.8062 39.21C94.9718 39.0719 95.165 38.9684 95.3858 38.8994C95.6136 38.8235 95.8586 38.7855 96.1208 38.7855C96.4521 38.7855 96.7868 38.8408 97.1249 38.9512C97.4631 39.0547 97.7702 39.1962 98.0462 39.3756L97.6839 39.976C97.4355 39.8173 97.1732 39.693 96.8972 39.6033C96.628 39.5067 96.3623 39.4584 96.1001 39.4584C95.7827 39.4584 95.5308 39.5343 95.3444 39.6861C95.1581 39.8311 95.0649 40.0139 95.0649 40.2348V40.2555C95.0649 40.3797 95.1029 40.4901 95.1788 40.5867C95.2547 40.6764 95.3548 40.7558 95.479 40.8248C95.6101 40.8938 95.7585 40.9559 95.9241 41.0111C96.0898 41.0663 96.2623 41.1215 96.4417 41.1768C96.6487 41.2389 96.8523 41.3079 97.0524 41.3838C97.2595 41.4597 97.4458 41.5563 97.6114 41.6736C97.7771 41.791 97.9082 41.9324 98.0048 42.098C98.1083 42.2637 98.1601 42.4673 98.1601 42.7088V42.7295ZM101.577 39.5102C101.259 39.5102 100.969 39.5481 100.707 39.624C100.452 39.693 100.2 39.7862 99.9514 39.9035L99.7133 39.2514C100.01 39.1133 100.31 39.0064 100.614 38.9305C100.918 38.8477 101.266 38.8062 101.659 38.8062C102.391 38.8062 102.953 38.9891 103.347 39.3549C103.74 39.7137 103.937 40.2486 103.937 40.9594V44.2305H103.171V43.423C102.984 43.6646 102.732 43.8785 102.415 44.0648C102.104 44.2512 101.711 44.3443 101.235 44.3443C100.987 44.3443 100.742 44.3098 100.5 44.2408C100.265 44.1718 100.051 44.0683 99.8582 43.9303C99.6719 43.7854 99.5201 43.6094 99.4027 43.4023C99.2923 43.1953 99.2371 42.9503 99.2371 42.6674C99.2371 42.3844 99.2923 42.136 99.4027 41.9221C99.5132 41.7012 99.6684 41.5184 99.8686 41.3734C100.076 41.2285 100.317 41.1181 100.593 41.0422C100.876 40.9663 101.187 40.9283 101.525 40.9283C101.87 40.9283 102.17 40.949 102.425 40.9904C102.681 41.0318 102.929 41.087 103.171 41.1561V40.9697C103.171 40.4867 103.029 40.1243 102.746 39.8828C102.47 39.6344 102.08 39.5102 101.577 39.5102ZM101.608 41.5184C101.104 41.5184 100.717 41.6184 100.448 41.8186C100.179 42.0187 100.045 42.2913 100.045 42.6363C100.045 42.8089 100.079 42.9607 100.148 43.0918C100.224 43.2229 100.324 43.3368 100.448 43.4334C100.572 43.5231 100.714 43.5921 100.873 43.6404C101.038 43.6887 101.211 43.7129 101.39 43.7129C101.639 43.7129 101.87 43.6784 102.084 43.6094C102.305 43.5335 102.494 43.4334 102.653 43.3092C102.819 43.1781 102.946 43.0262 103.036 42.8537C103.133 42.6743 103.181 42.4776 103.181 42.2637V41.7461C102.981 41.6909 102.75 41.6391 102.488 41.5908C102.232 41.5425 101.939 41.5184 101.608 41.5184ZM106.432 41.1664V44.2305H105.635V38.8787H106.432V39.8104C106.612 39.5205 106.847 39.2755 107.136 39.0754C107.426 38.8684 107.802 38.7648 108.265 38.7648C108.589 38.7648 108.875 38.8166 109.124 38.9201C109.379 39.0236 109.593 39.172 109.766 39.3652C109.945 39.5516 110.08 39.7758 110.169 40.0381C110.266 40.3003 110.314 40.5902 110.314 40.9076V44.2305H109.517V41.1043C109.517 40.6074 109.39 40.2141 109.134 39.9242C108.879 39.6344 108.513 39.4895 108.037 39.4895C107.809 39.4895 107.595 39.5309 107.395 39.6137C107.202 39.6896 107.033 39.8035 106.888 39.9553C106.743 40.1002 106.629 40.2762 106.546 40.4832C106.47 40.6902 106.432 40.918 106.432 41.1664ZM113.95 39.5102C113.632 39.5102 113.343 39.5481 113.08 39.624C112.825 39.693 112.573 39.7862 112.325 39.9035L112.087 39.2514C112.383 39.1133 112.684 39.0064 112.987 38.9305C113.291 38.8477 113.639 38.8062 114.033 38.8062C114.764 38.8062 115.327 38.9891 115.72 39.3549C116.113 39.7137 116.31 40.2486 116.31 40.9594V44.2305H115.544V43.423C115.358 43.6646 115.106 43.8785 114.788 44.0648C114.478 44.2512 114.084 44.3443 113.608 44.3443C113.36 44.3443 113.115 44.3098 112.873 44.2408C112.639 44.1718 112.425 44.0683 112.232 43.9303C112.045 43.7854 111.893 43.6094 111.776 43.4023C111.666 43.1953 111.61 42.9503 111.61 42.6674C111.61 42.3844 111.666 42.136 111.776 41.9221C111.887 41.7012 112.042 41.5184 112.242 41.3734C112.449 41.2285 112.69 41.1181 112.967 41.0422C113.249 40.9663 113.56 40.9283 113.898 40.9283C114.243 40.9283 114.543 40.949 114.799 40.9904C115.054 41.0318 115.303 41.087 115.544 41.1561V40.9697C115.544 40.4867 115.403 40.1243 115.12 39.8828C114.844 39.6344 114.454 39.5102 113.95 39.5102ZM113.981 41.5184C113.477 41.5184 113.091 41.6184 112.822 41.8186C112.552 42.0187 112.418 42.2913 112.418 42.6363C112.418 42.8089 112.452 42.9607 112.521 43.0918C112.597 43.2229 112.697 43.3368 112.822 43.4334C112.946 43.5231 113.087 43.5921 113.246 43.6404C113.412 43.6887 113.584 43.7129 113.764 43.7129C114.012 43.7129 114.243 43.6784 114.457 43.6094C114.678 43.5335 114.868 43.4334 115.026 43.3092C115.192 43.1781 115.32 43.0262 115.409 42.8537C115.506 42.6743 115.554 42.4776 115.554 42.2637V41.7461C115.354 41.6909 115.123 41.6391 114.861 41.5908C114.606 41.5425 114.312 41.5184 113.981 41.5184ZM118.878 44.2305H118.081V36.6738H118.878V44.2305ZM127.755 41.8289C127.755 42.243 127.696 42.6087 127.579 42.9262C127.468 43.2367 127.313 43.499 127.113 43.7129C126.913 43.9199 126.675 44.0752 126.399 44.1787C126.123 44.2822 125.822 44.334 125.498 44.334C124.953 44.334 124.501 44.2132 124.142 43.9717C123.783 43.7301 123.49 43.423 123.262 43.0504L123.852 42.5432C124.073 42.8813 124.308 43.1401 124.556 43.3195C124.811 43.4921 125.129 43.5783 125.508 43.5783C125.916 43.5783 126.254 43.4334 126.523 43.1436C126.792 42.8468 126.927 42.412 126.927 41.8393V36.9844H127.755V41.8289ZM130.029 41.8496C130.057 42.1395 130.126 42.3982 130.236 42.626C130.347 42.8468 130.488 43.0366 130.661 43.1953C130.833 43.3471 131.027 43.4645 131.241 43.5473C131.454 43.6232 131.679 43.6611 131.913 43.6611C132.286 43.6611 132.603 43.5921 132.866 43.4541C133.135 43.3161 133.38 43.1332 133.601 42.9055L134.098 43.3506C133.828 43.6542 133.521 43.8992 133.176 44.0855C132.831 44.265 132.403 44.3547 131.893 44.3547C131.527 44.3547 131.182 44.2891 130.857 44.158C130.533 44.02 130.25 43.8302 130.009 43.5887C129.767 43.3402 129.574 43.0435 129.429 42.6984C129.291 42.3534 129.222 41.9738 129.222 41.5598C129.222 41.1733 129.284 40.811 129.408 40.4729C129.539 40.1278 129.719 39.8311 129.947 39.5826C130.174 39.3273 130.443 39.1271 130.754 38.9822C131.071 38.8373 131.416 38.7648 131.789 38.7648C132.182 38.7648 132.534 38.8408 132.845 38.9926C133.156 39.1375 133.418 39.3376 133.632 39.593C133.846 39.8483 134.008 40.1485 134.118 40.4936C134.229 40.8386 134.284 41.2078 134.284 41.6012C134.284 41.6357 134.284 41.6736 134.284 41.715C134.284 41.7564 134.28 41.8013 134.274 41.8496H130.029ZM130.029 41.2596H133.476C133.456 41.018 133.404 40.7868 133.321 40.566C133.245 40.3452 133.135 40.152 132.99 39.9863C132.852 39.8207 132.679 39.6896 132.472 39.593C132.272 39.4895 132.038 39.4377 131.768 39.4377C131.534 39.4377 131.316 39.486 131.116 39.5826C130.916 39.6723 130.74 39.8 130.588 39.9656C130.437 40.1243 130.312 40.3141 130.216 40.535C130.119 40.7558 130.057 40.9973 130.029 41.2596ZM139.319 38.858L140.768 43.1746L142.176 38.8787H143.004L141.12 44.2719H140.427L138.988 40.0484L137.538 44.2719H136.835L134.961 38.8787H135.81L137.218 43.1746L138.656 38.858H139.319ZM144.546 41.8496C144.573 42.1395 144.642 42.3982 144.753 42.626C144.863 42.8468 145.005 43.0366 145.177 43.1953C145.35 43.3471 145.543 43.4645 145.757 43.5473C145.971 43.6232 146.195 43.6611 146.43 43.6611C146.802 43.6611 147.12 43.5921 147.382 43.4541C147.651 43.3161 147.896 43.1332 148.117 42.9055L148.614 43.3506C148.345 43.6542 148.038 43.8992 147.693 44.0855C147.348 44.265 146.92 44.3547 146.409 44.3547C146.043 44.3547 145.698 44.2891 145.374 44.158C145.05 44.02 144.767 43.8302 144.525 43.5887C144.284 43.3402 144.09 43.0435 143.945 42.6984C143.807 42.3534 143.738 41.9738 143.738 41.5598C143.738 41.1733 143.801 40.811 143.925 40.4729C144.056 40.1278 144.235 39.8311 144.463 39.5826C144.691 39.3273 144.96 39.1271 145.27 38.9822C145.588 38.8373 145.933 38.7648 146.306 38.7648C146.699 38.7648 147.051 38.8408 147.361 38.9926C147.672 39.1375 147.934 39.3376 148.148 39.593C148.362 39.8483 148.524 40.1485 148.635 40.4936C148.745 40.8386 148.8 41.2078 148.8 41.6012C148.8 41.6357 148.8 41.6736 148.8 41.715C148.8 41.7564 148.797 41.8013 148.79 41.8496H144.546ZM144.546 41.2596H147.993C147.972 41.018 147.92 40.7868 147.838 40.566C147.762 40.3452 147.651 40.152 147.506 39.9863C147.368 39.8207 147.196 39.6896 146.989 39.593C146.789 39.4895 146.554 39.4377 146.285 39.4377C146.05 39.4377 145.833 39.486 145.633 39.5826C145.433 39.6723 145.257 39.8 145.105 39.9656C144.953 40.1243 144.829 40.3141 144.732 40.535C144.636 40.7558 144.573 40.9973 144.546 41.2596ZM151.065 44.2305H150.268V36.6738H151.065V44.2305ZM153.712 42.098V44.2305H152.915V38.8787H153.712V40.2762C153.809 40.0553 153.929 39.8518 154.074 39.6654C154.219 39.4791 154.385 39.3204 154.571 39.1893C154.758 39.0512 154.961 38.9477 155.182 38.8787C155.403 38.8097 155.641 38.7786 155.896 38.7855V39.6447H155.834C155.544 39.6447 155.268 39.6965 155.006 39.8C154.751 39.9035 154.526 40.0588 154.333 40.2658C154.14 40.4729 153.988 40.7316 153.878 41.0422C153.767 41.3458 153.712 41.6978 153.712 42.098ZM161.965 38.8787L159.719 44.4064C159.491 44.9585 159.236 45.3484 158.953 45.5762C158.677 45.8039 158.339 45.9178 157.938 45.9178C157.717 45.9178 157.517 45.8936 157.338 45.8453C157.158 45.8039 156.979 45.7383 156.8 45.6486L157.069 45.0172C157.2 45.0862 157.328 45.1345 157.452 45.1621C157.583 45.1966 157.735 45.2139 157.907 45.2139C158.149 45.2139 158.352 45.1414 158.518 44.9965C158.684 44.8516 158.846 44.5893 159.005 44.2098L156.572 38.8787H157.452L159.398 43.3402L161.116 38.8787H161.965ZM171.733 41.5494C171.733 41.9911 171.661 42.3844 171.516 42.7295C171.371 43.0745 171.178 43.3678 170.936 43.6094C170.701 43.844 170.429 44.0269 170.118 44.158C169.815 44.2822 169.501 44.3443 169.176 44.3443C168.928 44.3443 168.7 44.3133 168.493 44.2512C168.286 44.1891 168.1 44.1062 167.934 44.0027C167.768 43.8992 167.617 43.7785 167.479 43.6404C167.347 43.5024 167.23 43.3575 167.127 43.2057V44.2305H166.33V36.6738H167.127V39.9553C167.237 39.7965 167.358 39.6447 167.489 39.4998C167.627 39.3549 167.779 39.2307 167.944 39.1271C168.11 39.0167 168.293 38.9305 168.493 38.8684C168.7 38.7993 168.928 38.7648 169.176 38.7648C169.494 38.7648 169.804 38.827 170.108 38.9512C170.418 39.0754 170.694 39.2583 170.936 39.4998C171.178 39.7344 171.371 40.0243 171.516 40.3693C171.661 40.7144 171.733 41.1077 171.733 41.5494ZM170.915 41.5598C170.915 41.2423 170.864 40.9559 170.76 40.7006C170.663 40.4452 170.529 40.2279 170.356 40.0484C170.184 39.8621 169.984 39.7206 169.756 39.624C169.528 39.5274 169.287 39.4791 169.031 39.4791C168.783 39.4791 168.541 39.5309 168.307 39.6344C168.079 39.731 167.872 39.869 167.686 40.0484C167.506 40.2279 167.361 40.4452 167.251 40.7006C167.147 40.9559 167.096 41.2389 167.096 41.5494C167.096 41.86 167.147 42.1464 167.251 42.4086C167.361 42.6639 167.506 42.8813 167.686 43.0607C167.872 43.2402 168.079 43.3816 168.307 43.4852C168.541 43.5818 168.783 43.6301 169.031 43.6301C169.287 43.6301 169.528 43.5852 169.756 43.4955C169.991 43.3989 170.191 43.2643 170.356 43.0918C170.529 42.9124 170.663 42.695 170.76 42.4396C170.864 42.1774 170.915 41.8841 170.915 41.5598ZM177.796 38.8787L175.549 44.4064C175.322 44.9585 175.066 45.3484 174.783 45.5762C174.507 45.8039 174.169 45.9178 173.769 45.9178C173.548 45.9178 173.348 45.8936 173.169 45.8453C172.989 45.8039 172.81 45.7383 172.63 45.6486L172.899 45.0172C173.031 45.0862 173.158 45.1345 173.282 45.1621C173.414 45.1966 173.565 45.2139 173.738 45.2139C173.979 45.2139 174.183 45.1414 174.349 44.9965C174.514 44.8516 174.676 44.5893 174.835 44.2098L172.403 38.8787H173.282L175.228 43.3402L176.947 38.8787H177.796ZM186.083 41.8289C186.083 42.243 186.025 42.6087 185.907 42.9262C185.797 43.2367 185.642 43.499 185.442 43.7129C185.241 43.9199 185.003 44.0752 184.727 44.1787C184.451 44.2822 184.151 44.334 183.827 44.334C183.282 44.334 182.83 44.2132 182.471 43.9717C182.112 43.7301 181.819 43.423 181.591 43.0504L182.181 42.5432C182.402 42.8813 182.636 43.1401 182.885 43.3195C183.14 43.4921 183.458 43.5783 183.837 43.5783C184.244 43.5783 184.582 43.4334 184.852 43.1436C185.121 42.8468 185.255 42.412 185.255 41.8393V36.9844H186.083V41.8289ZM188.358 41.8496C188.386 42.1395 188.455 42.3982 188.565 42.626C188.675 42.8468 188.817 43.0366 188.989 43.1953C189.162 43.3471 189.355 43.4645 189.569 43.5473C189.783 43.6232 190.007 43.6611 190.242 43.6611C190.615 43.6611 190.932 43.5921 191.194 43.4541C191.463 43.3161 191.708 43.1332 191.929 42.9055L192.426 43.3506C192.157 43.6542 191.85 43.8992 191.505 44.0855C191.16 44.265 190.732 44.3547 190.221 44.3547C189.856 44.3547 189.51 44.2891 189.186 44.158C188.862 44.02 188.579 43.8302 188.337 43.5887C188.096 43.3402 187.903 43.0435 187.758 42.6984C187.62 42.3534 187.551 41.9738 187.551 41.5598C187.551 41.1733 187.613 40.811 187.737 40.4729C187.868 40.1278 188.047 39.8311 188.275 39.5826C188.503 39.3273 188.772 39.1271 189.083 38.9822C189.4 38.8373 189.745 38.7648 190.118 38.7648C190.511 38.7648 190.863 38.8408 191.174 38.9926C191.484 39.1375 191.746 39.3376 191.96 39.593C192.174 39.8483 192.336 40.1485 192.447 40.4936C192.557 40.8386 192.612 41.2078 192.612 41.6012C192.612 41.6357 192.612 41.6736 192.612 41.715C192.612 41.7564 192.609 41.8013 192.602 41.8496H188.358ZM188.358 41.2596H191.805C191.784 41.018 191.733 40.7868 191.65 40.566C191.574 40.3452 191.463 40.152 191.319 39.9863C191.181 39.8207 191.008 39.6896 190.801 39.593C190.601 39.4895 190.366 39.4377 190.097 39.4377C189.862 39.4377 189.645 39.486 189.445 39.5826C189.245 39.6723 189.069 39.8 188.917 39.9656C188.765 40.1243 188.641 40.3141 188.544 40.535C188.448 40.7558 188.386 40.9973 188.358 41.2596ZM197.648 38.858L199.097 43.1746L200.505 38.8787H201.333L199.449 44.2719H198.755L197.316 40.0484L195.867 44.2719H195.163L193.29 38.8787H194.138L195.546 43.1746L196.985 38.858H197.648ZM202.874 41.8496C202.902 42.1395 202.971 42.3982 203.081 42.626C203.192 42.8468 203.333 43.0366 203.506 43.1953C203.678 43.3471 203.872 43.4645 204.086 43.5473C204.3 43.6232 204.524 43.6611 204.758 43.6611C205.131 43.6611 205.449 43.5921 205.711 43.4541C205.98 43.3161 206.225 43.1332 206.446 42.9055L206.943 43.3506C206.673 43.6542 206.366 43.8992 206.021 44.0855C205.676 44.265 205.248 44.3547 204.738 44.3547C204.372 44.3547 204.027 44.2891 203.703 44.158C203.378 44.02 203.095 43.8302 202.854 43.5887C202.612 43.3402 202.419 43.0435 202.274 42.6984C202.136 42.3534 202.067 41.9738 202.067 41.5598C202.067 41.1733 202.129 40.811 202.253 40.4729C202.384 40.1278 202.564 39.8311 202.792 39.5826C203.019 39.3273 203.289 39.1271 203.599 38.9822C203.917 38.8373 204.262 38.7648 204.634 38.7648C205.028 38.7648 205.38 38.8408 205.69 38.9926C206.001 39.1375 206.263 39.3376 206.477 39.593C206.691 39.8483 206.853 40.1485 206.963 40.4936C207.074 40.8386 207.129 41.2078 207.129 41.6012C207.129 41.6357 207.129 41.6736 207.129 41.715C207.129 41.7564 207.125 41.8013 207.119 41.8496H202.874ZM202.874 41.2596H206.322C206.301 41.018 206.249 40.7868 206.166 40.566C206.09 40.3452 205.98 40.152 205.835 39.9863C205.697 39.8207 205.524 39.6896 205.317 39.593C205.117 39.4895 204.883 39.4377 204.614 39.4377C204.379 39.4377 204.161 39.486 203.961 39.5826C203.761 39.6723 203.585 39.8 203.433 39.9656C203.282 40.1243 203.157 40.3141 203.061 40.535C202.964 40.7558 202.902 40.9973 202.874 41.2596ZM209.394 44.2305H208.597V36.6738H209.394V44.2305ZM221.552 40.5971C221.552 41.1008 221.462 41.5805 221.283 42.0359C221.103 42.4845 220.851 42.8813 220.527 43.2264C220.203 43.5714 219.813 43.8475 219.357 44.0545C218.902 44.2546 218.398 44.3547 217.846 44.3547C217.294 44.3547 216.79 44.2546 216.335 44.0545C215.886 43.8544 215.5 43.5852 215.175 43.2471C214.851 42.902 214.599 42.5052 214.42 42.0566C214.247 41.6012 214.161 41.1215 214.161 40.6178C214.161 40.114 214.25 39.6378 214.43 39.1893C214.609 38.7338 214.861 38.3335 215.186 37.9885C215.51 37.6434 215.9 37.3708 216.355 37.1707C216.811 36.9637 217.315 36.8602 217.867 36.8602C218.419 36.8602 218.919 36.9602 219.368 37.1604C219.823 37.3605 220.213 37.6331 220.537 37.9781C220.862 38.3163 221.11 38.7131 221.283 39.1686C221.462 39.6171 221.552 40.0933 221.552 40.5971ZM220.703 40.6178C220.703 40.2037 220.63 39.8138 220.486 39.448C220.348 39.0823 220.151 38.7648 219.895 38.4957C219.64 38.2266 219.337 38.0126 218.985 37.8539C218.64 37.6952 218.26 37.6158 217.846 37.6158C217.432 37.6158 217.049 37.6952 216.697 37.8539C216.352 38.0057 216.055 38.2162 215.807 38.4854C215.558 38.7545 215.362 39.0719 215.217 39.4377C215.079 39.7965 215.01 40.183 215.01 40.5971C215.01 41.0111 215.079 41.401 215.217 41.7668C215.362 42.1326 215.562 42.45 215.817 42.7191C216.072 42.9883 216.373 43.2022 216.718 43.3609C217.07 43.5197 217.453 43.599 217.867 43.599C218.281 43.599 218.66 43.5231 219.005 43.3713C219.357 43.2126 219.657 42.9986 219.906 42.7295C220.154 42.4604 220.348 42.1464 220.486 41.7875C220.63 41.4217 220.703 41.0318 220.703 40.6178ZM223.939 41.1664V44.2305H223.142V38.8787H223.939V39.8104C224.118 39.5205 224.353 39.2755 224.643 39.0754C224.933 38.8684 225.309 38.7648 225.771 38.7648C226.095 38.7648 226.382 38.8166 226.63 38.9201C226.886 39.0236 227.1 39.172 227.272 39.3652C227.452 39.5516 227.586 39.7758 227.676 40.0381C227.772 40.3003 227.821 40.5902 227.821 40.9076V44.2305H227.024V41.1043C227.024 40.6074 226.896 40.2141 226.641 39.9242C226.385 39.6344 226.02 39.4895 225.543 39.4895C225.316 39.4895 225.102 39.5309 224.902 39.6137C224.708 39.6896 224.539 39.8035 224.394 39.9553C224.249 40.1002 224.136 40.2762 224.053 40.4832C223.977 40.6902 223.939 40.918 223.939 41.1664ZM229.997 41.8496C230.024 42.1395 230.093 42.3982 230.204 42.626C230.314 42.8468 230.456 43.0366 230.628 43.1953C230.801 43.3471 230.994 43.4645 231.208 43.5473C231.422 43.6232 231.646 43.6611 231.881 43.6611C232.253 43.6611 232.571 43.5921 232.833 43.4541C233.102 43.3161 233.347 43.1332 233.568 42.9055L234.065 43.3506C233.796 43.6542 233.489 43.8992 233.144 44.0855C232.799 44.265 232.371 44.3547 231.86 44.3547C231.494 44.3547 231.149 44.2891 230.825 44.158C230.501 44.02 230.218 43.8302 229.976 43.5887C229.735 43.3402 229.541 43.0435 229.396 42.6984C229.258 42.3534 229.189 41.9738 229.189 41.5598C229.189 41.1733 229.251 40.811 229.376 40.4729C229.507 40.1278 229.686 39.8311 229.914 39.5826C230.142 39.3273 230.411 39.1271 230.721 38.9822C231.039 38.8373 231.384 38.7648 231.757 38.7648C232.15 38.7648 232.502 38.8408 232.812 38.9926C233.123 39.1375 233.385 39.3376 233.599 39.593C233.813 39.8483 233.975 40.1485 234.086 40.4936C234.196 40.8386 234.251 41.2078 234.251 41.6012C234.251 41.6357 234.251 41.6736 234.251 41.715C234.251 41.7564 234.248 41.8013 234.241 41.8496H229.997ZM229.997 41.2596H233.444C233.423 41.018 233.371 40.7868 233.289 40.566C233.213 40.3452 233.102 40.152 232.957 39.9863C232.819 39.8207 232.647 39.6896 232.44 39.593C232.24 39.4895 232.005 39.4377 231.736 39.4377C231.501 39.4377 231.284 39.486 231.084 39.5826C230.884 39.6723 230.708 39.8 230.556 39.9656C230.404 40.1243 230.28 40.3141 230.183 40.535C230.086 40.7558 230.024 40.9973 229.997 41.2596Z" fill="black"/>
<path d="M18.8182 2.26172V4.52871H5.65106V12.2924H17.4208V14.5283H5.65106V24H3.19774V2.26172H18.8182ZM32.8877 24V2.26172H35.341V21.733H47.5766V24H32.8877ZM82.6356 13.0998C82.6356 14.6111 82.3665 16.05 81.8282 17.4164C81.2899 18.7621 80.5343 19.9525 79.5612 20.9877C78.5882 22.0229 77.4184 22.851 76.052 23.4721C74.6856 24.0725 73.1743 24.3727 71.518 24.3727C69.8618 24.3727 68.3505 24.0725 66.9841 23.4721C65.6384 22.8717 64.479 22.0643 63.5059 21.0498C62.5329 20.0146 61.7772 18.8242 61.2389 17.4785C60.7214 16.1121 60.4626 14.6732 60.4626 13.1619C60.4626 11.6506 60.7317 10.2221 61.27 8.87637C61.8083 7.50996 62.5639 6.30918 63.537 5.27402C64.51 4.23887 65.6798 3.42109 67.0462 2.8207C68.4126 2.19961 69.9239 1.88906 71.5802 1.88906C73.2364 1.88906 74.7374 2.18926 76.0831 2.78965C77.4495 3.39004 78.6192 4.20781 79.5923 5.24297C80.5653 6.25742 81.3106 7.44785 81.8282 8.81426C82.3665 10.16 82.6356 11.5885 82.6356 13.0998ZM80.0891 13.1619C80.0891 11.9197 79.8718 10.75 79.437 9.65273C79.0229 8.55547 78.4329 7.60312 77.6669 6.7957C76.9009 5.98828 75.9899 5.34648 74.9341 4.87031C73.8989 4.39414 72.7602 4.15605 71.518 4.15605C70.2759 4.15605 69.1268 4.39414 68.071 4.87031C67.0358 5.32578 66.1456 5.95723 65.4003 6.76465C64.655 7.57207 64.0649 8.52441 63.6302 9.62168C63.2161 10.6982 63.0091 11.8576 63.0091 13.0998C63.0091 14.342 63.2161 15.5117 63.6302 16.609C64.0649 17.7062 64.6653 18.6586 65.4313 19.466C66.1973 20.2734 67.0979 20.9152 68.1331 21.3914C69.1889 21.8676 70.338 22.1057 71.5802 22.1057C72.8223 22.1057 73.961 21.8779 74.9962 21.4225C76.052 20.9463 76.9526 20.3045 77.6979 19.4971C78.4432 18.6896 79.0229 17.7477 79.437 16.6711C79.8718 15.5738 80.0891 14.4041 80.0891 13.1619ZM115.101 24H112.088L105.784 15.5531H99.5733V24H97.12V2.26172H106.467C107.668 2.26172 108.745 2.41699 109.697 2.72754C110.67 3.03808 111.498 3.4832 112.181 4.06289C112.865 4.62187 113.393 5.30508 113.765 6.1125C114.138 6.89922 114.324 7.7791 114.324 8.75215C114.324 9.66309 114.179 10.4809 113.89 11.2055C113.6 11.9094 113.186 12.5305 112.647 13.0687C112.13 13.5863 111.509 14.0211 110.784 14.373C110.059 14.725 109.273 14.9734 108.424 15.1184L115.101 24ZM111.84 8.84531C111.84 7.47891 111.353 6.42305 110.38 5.67773C109.407 4.91172 108.041 4.52871 106.281 4.52871H99.5733V13.3482H106.25C107.057 13.3482 107.803 13.2447 108.486 13.0377C109.169 12.8307 109.759 12.5408 110.256 12.1682C110.753 11.7748 111.136 11.2986 111.405 10.7396C111.695 10.1807 111.84 9.54922 111.84 8.84531ZM144.586 2.26172V4.49766H131.325V11.9197H143.188V14.1557H131.325V21.7641H144.741V24H128.872V2.26172H144.586ZM174.98 19.6834V2.26172H177.371V24H175.415L161.378 6.17461V24H158.987V2.26172H161.285L174.98 19.6834ZM211.464 20.5529C210.905 21.1326 210.315 21.6605 209.694 22.1367C209.094 22.5922 208.442 22.9855 207.738 23.3168C207.034 23.648 206.278 23.9068 205.471 24.0932C204.663 24.2795 203.763 24.3727 202.769 24.3727C201.196 24.3727 199.746 24.0828 198.421 23.5031C197.096 22.9234 195.947 22.1367 194.974 21.143C194.001 20.1285 193.235 18.9381 192.676 17.5717C192.138 16.2053 191.869 14.7354 191.869 13.1619C191.869 11.6092 192.138 10.1496 192.676 8.7832C193.235 7.4168 194.001 6.22637 194.974 5.21191C195.947 4.17676 197.107 3.36934 198.452 2.78965C199.798 2.18926 201.268 1.88906 202.862 1.88906C203.856 1.88906 204.746 1.97187 205.533 2.1375C206.34 2.30312 207.086 2.54121 207.769 2.85176C208.452 3.1416 209.083 3.5039 209.663 3.93867C210.243 4.35273 210.802 4.81855 211.34 5.33613L209.663 7.1373C208.731 6.26777 207.727 5.55351 206.651 4.99453C205.595 4.43555 204.322 4.15605 202.831 4.15605C201.63 4.15605 200.512 4.38379 199.477 4.83926C198.463 5.29473 197.573 5.92617 196.806 6.73359C196.061 7.54101 195.471 8.49336 195.036 9.59062C194.622 10.6672 194.415 11.8369 194.415 13.0998C194.415 14.3627 194.622 15.5428 195.036 16.64C195.471 17.7373 196.061 18.6896 196.806 19.4971C197.573 20.3045 198.463 20.9463 199.477 21.4225C200.512 21.8779 201.63 22.1057 202.831 22.1057C204.322 22.1057 205.605 21.8365 206.682 21.2982C207.758 20.7393 208.814 19.9629 209.849 18.9691L211.464 20.5529ZM225.286 2.26172H227.74V24H225.286V2.26172ZM253.758 2.10644L263.664 24H261.025L258.478 18.2549H246.646L244.069 24H241.553L251.46 2.10644H253.758ZM257.515 16.05L252.578 4.96348L247.609 16.05H257.515Z" fill="black"/>
</svg>
